PathFileType	4	(X/Y/Z)	C:\Users\WrightLab\Desktop\Jo\P5V120.trc
DataRate	CameraRate	NumFrames	NumMarkers	Units	OrigDataRate	OrigDataStartFrame	OrigNumFrames
100.00	100.00	       17	19	mm	100.00	1	       630
Frame#	Time	Headset_Front			Headset_Back			Headset_Left			Headset_Right			Left_Shoulder			Right_Shoulder			Sternum			C7			Left Elbow			Right Elbow			Left Wrist			Right Wrist			Left ASIS			Right ASIS			S2			Left Knee			Right Knee			Left Ankle			Right Ankle			
		X1	Y1	Z1	X2	Y2	Z2	X3	Y3	Z3	X4	Y4	Z4	X5	Y5	Z5	X6	Y6	Z6	X7	Y7	Z7	X8	Y8	Z8	X9	Y9	Z9	X10	Y10	Z10	X11	Y11	Z11	X12	Y12	Z12	X13	Y13	Z13	X14	Y14	Z14	X15	Y15	Z15	X16	Y16	Z16	X17	Y17	Z17	X18	Y18	Z18	X19	Y19	Z19	

1	0.000	-425.44147	1623.54248	1267.28271	-622.99524	1371.49561	1302.24951	-394.06799	1466.70544	1383.04089	-642.77625	1707.84412	1250.24304													-802.94360	1569.43970	1432.19666	-351.57849	1210.65784	1513.80981	-855.33490	1238.56873	1304.47803	-356.21890	1056.79578	1334.06726	-812.44507	997.18585	1340.10718	-517.88226	982.06073	1300.59546				-881.67603	547.38495	1388.25964	-577.29742	543.42719	1298.20386				-628.95544	132.93564	1434.96729	
2	0.010	-422.58786	1622.91040	1264.13037	-620.46692	1371.82776	1297.34009				-639.17072	1707.51099	1241.75049				-647.30072	1029.11450	1597.21155							-803.29877	1570.35376	1421.91406	-354.85941	1211.15637	1512.15894	-854.39337	1240.49426	1294.95837	-355.46719	1057.76514	1332.89453	-811.47681	998.25909	1331.61560	-515.83588	982.09094	1299.03186				-883.18231	550.75928	1374.09460	-572.95569	543.00934	1298.81409				-627.97076	133.44595	1434.49719	
3	0.020	-419.34579	1622.70166	1262.31799	-618.70966	1372.71143	1290.84253										-653.43878	1030.33630	1590.46606							-803.58276	1571.37805	1411.57935	-357.25882	1212.26941	1511.06921	-853.38733	1241.63208	1285.69409	-356.29141	1058.23486	1332.07971	-809.94342	998.82745	1322.69678	-513.87604	982.38934	1297.62122				-883.43597	553.64886	1359.87305	-568.66461	542.41998	1299.72095				-626.11163	134.29410	1434.08398	
4	0.030	-416.41678	1622.13623	1259.34399	-616.36182	1372.64587	1285.42126										-660.11914	1031.63953	1585.90710							-804.41974	1572.63989	1401.13416	-359.53751	1212.53979	1511.78625	-852.35535	1242.97388	1276.43958	-356.36517	1058.16968	1332.24243	-807.43518	999.12982	1313.88452	-511.56277	983.37494	1294.26782				-882.90900	556.44196	1345.96802	-563.87933	541.95886	1299.99976				-624.93512	134.21664	1434.61292	
5	0.040	-413.39505	1622.23376	1258.25684	-613.46460	1372.69116	1280.97302	-393.95389	1469.53918	1377.88110				-912.11090	1309.49023	1465.83289	-666.51398	1032.48840	1580.16772							-804.18420	1573.32129	1390.76038	-362.04614	1213.35254	1511.91418	-851.24957	1244.30408	1267.06824	-357.47086	1057.73218	1334.14783	-805.17023	1000.04376	1305.54456	-510.45551	984.17719	1293.80530				-881.41528	558.93073	1332.01160	-559.20209	541.51727	1300.99097				-624.31689	133.91774	1434.46838	
6	0.050	-410.21088	1620.92236	1255.90771	-611.48096	1374.16394	1275.38745	-394.82474	1469.73816	1376.19678				-914.34399	1311.10999	1454.94177	-674.47766	1033.76709	1575.24316							-804.54364	1574.34131	1380.33716	-365.03607	1213.56763	1511.67188	-849.94061	1245.49939	1257.58252	-357.50977	1058.70654	1334.21509	-802.52216	1000.71973	1296.76172	-507.16098	983.50507	1291.68286				-879.12079	561.11310	1317.84131	-555.54010	540.97504	1302.41113				-623.62463	133.75494	1434.79553	
7	0.060	-407.19983	1619.96912	1254.28870	-608.45691	1373.85156	1270.57300	-393.95255	1471.05090	1377.60364				-916.56616	1312.78845	1443.75830	-681.06818	1034.40149	1569.64209							-804.33838	1574.99402	1369.91797	-368.19458	1213.59253	1511.97083	-848.50336	1246.31995	1247.88318	-357.37906	1059.15881	1334.41418	-800.26038	1000.83405	1287.31909	-505.09271	983.86877	1290.20166				-875.75403	562.92120	1303.41614	-550.84930	540.44611	1303.67444				-623.12714	134.12404	1435.10913	
8	0.070	-403.94263	1619.08411	1253.15442	-605.62659	1373.70508	1264.84436	-393.60342	1471.04968	1377.36597				-918.60669	1314.30457	1432.38147	-688.33289	1036.17786	1565.14612							-804.09064	1575.71582	1359.56091	-370.85275	1214.63000	1511.61523	-846.92194	1247.26147	1238.11560	-357.29056	1059.97327	1334.51184	-797.01508	1001.55786	1279.14746	-502.89066	984.19061	1287.97302				-871.70447	564.36932	1288.95459	-547.12036	540.21967	1305.09326				-622.98187	134.20200	1435.10571	
9	0.080	-400.96973	1617.52502	1250.61633	-601.86249	1373.94458	1260.77637	-393.60342	1471.04968	1377.36597				-920.32837	1315.56445	1420.76636	-694.74762	1036.74316	1559.36230							-803.47211	1576.25635	1349.13062	-373.39526	1215.47253	1513.18994	-845.02325	1248.27710	1228.31531	-356.53094	1060.47852	1334.96851	-793.65265	1001.37769	1270.77966	-498.51431	983.55090	1284.80371				-867.00079	565.45935	1274.77490	-543.83331	540.04187	1305.55591	-820.54205	272.74615	1564.65698	-622.64551	134.36945	1435.35107	
10	0.090	-398.11877	1616.85144	1250.66528	-598.79712	1375.01904	1255.10046							-921.36108	1316.31799	1408.93066	-701.44214	1037.23718	1553.57556							-802.27142	1576.69751	1338.79224	-377.11804	1215.33484	1513.10828	-842.92310	1248.90051	1218.34631	-356.95496	1060.56299	1335.36121	-790.88037	1002.01111	1261.84375	-496.35110	983.90259	1283.73376				-861.89856	566.03302	1261.18896	-540.61816	538.83319	1306.47156	-828.46527	264.87656	1541.16101	-623.02631	134.28418	1435.86633	
11	0.100	-395.42194	1615.16345	1249.70483	-595.17633	1374.54114	1249.83887							-922.47260	1317.33044	1396.91382	-707.94385	1039.29150	1549.06995							-802.01959	1577.40308	1328.48047	-380.44550	1215.79724	1513.27197	-840.76331	1249.32910	1208.28320	-356.51859	1061.04590	1335.91553	-787.30200	1002.02472	1253.68896	-494.79538	984.14282	1282.69128				-856.48206	566.25977	1248.15552	-536.85559	538.07623	1307.54846	-836.34497	256.75998	1516.08105	-623.26666	134.09346	1436.52332	
12	0.110	-392.17389	1613.79858	1247.52673	-591.47577	1374.59546	1245.26489																			-800.79327	1577.58398	1318.21362	-383.84753	1215.77686	1513.80432	-838.10089	1249.92114	1198.17090	-356.80908	1061.27856	1337.07178	-783.73895	1002.05505	1245.57117	-492.88531	984.33844	1281.42493				-850.86877	566.10675	1235.72302	-533.93756	537.88910	1308.58740	-842.85736	248.10756	1494.24255	-623.03143	134.35152	1436.78577	
13	0.120	-389.45486	1612.74060	1247.15466	-588.65247	1374.35339	1238.33374							-924.67212	1319.46655	1372.68774										-799.16266	1577.81677	1307.83423	-387.04953	1216.25012	1514.52966	-835.64056	1250.15320	1188.00793	-356.20465	1062.03333	1338.05859	-780.73956	1002.26917	1236.69348	-491.39877	983.74310	1280.84424				-844.97229	565.78357	1223.76221	-531.08124	537.45599	1310.00525	-849.34235	239.73895	1468.74585	-622.91333	134.41917	1436.81201	
14	0.130	-386.89963	1611.71204	1246.88000										-925.58954	1320.23303	1360.22095										-797.89978	1577.81787	1297.54309	-389.79315	1217.44373	1515.27527	-832.47906	1250.36877	1177.78638	-355.95755	1062.88220	1339.54126	-775.99182	1001.51929	1229.05762	-490.13287	983.41534	1281.29797				-838.87683	565.38617	1212.25964	-528.00702	536.68530	1311.03674	-855.42633	232.64467	1439.77588	-622.48401	134.44537	1437.07239	
15	0.140	-383.99261	1609.80310	1245.60266	-581.43353	1374.94788	1232.38684							-925.16687	1320.21362	1347.68359										-796.65881	1578.09009	1287.19617	-393.27200	1217.34155	1515.74951	-829.57684	1250.34155	1167.43896	-356.57959	1062.67407	1340.20581	-772.56317	1001.70544	1220.70654	-488.21408	983.27710	1280.94885	-732.62231	1041.22021	1525.02820	-832.97815	564.57452	1199.49585	-525.30695	536.40533	1312.58923	-860.89136	224.58470	1412.75232	-622.46027	134.44157	1437.10132	
16	0.150	-381.64523	1608.27686	1244.74268	-578.28650	1373.57654	1229.09509	-398.01273	1472.44946	1382.01648				-925.82776	1321.02380	1334.99414										-794.66998	1577.60339	1276.75818	-396.82492	1217.26257	1516.10791	-826.11298	1250.20154	1157.04114	-357.07687	1063.95740	1341.72559	-768.16199	1000.94489	1212.89673	-486.93570	982.96851	1280.52991	-739.11023	1041.40637	1518.46191	-825.79205	564.01422	1189.16260	-523.11316	535.56769	1314.09778	-865.58728	217.42911	1385.72375	-622.67456	134.20915	1437.75903	
17	0.160	-379.09671	1607.50757	1244.59595				-398.99228	1472.22046	1382.82471				-926.27765	1321.59094	1322.24268										-792.53735	1577.26990	1266.22229	-400.13135	1217.36707	1516.71106	-822.31659	1249.79810	1146.57654	-357.19495	1063.69727	1342.12671	-763.98743	999.87292	1204.61145	-485.78430	982.68823	1281.82117	-745.74304	1041.51672	1511.52698	-819.25519	564.18774	1177.38013	-520.30524	535.08807	1315.61316	-869.52216	210.35492	1356.84045	-623.02948	134.04884	1438.25513	
